<svg xmlns="http://www.w3.org/2000/svg" viewBox="0 0 800 270" role="img">
<title>STBL: 48 observed quotes; each price relative to the first quote</title>
<rect width="800" height="270" rx="12" fill="#f6f8fa"/>
<g font-family="sans-serif" font-size="12" fill="#334155">
<text x="60" y="24">STBL: 48 observed quotes; each price relative to the first quote</text>
<text x="8" y="48">1.05x</text><text x="8" y="220">0.95x</text>
<line x1="60" y1="129.962" x2="740" y2="129.962" stroke="#94a3b8" stroke-dasharray="4 4"/>
<text x="744" y="129.962">1x</text>
<polyline fill="none" stroke="#087f6d" stroke-width="2" points="60.000,129.962 64.863,129.962 76.229,129.962 87.634,130.107 101.933,130.107 110.644,130.107 122.231,130.107 133.962,130.107 144.821,130.107 156.376,130.107 167.821,130.107 179.287,130.107 190.730,131.008 202.044,130.468 213.536,130.468 224.853,130.468 270.824,130.045 282.136,130.045 293.619,130.045 307.238,130.045 316.668,130.045 327.840,130.045 339.294,130.045 350.754,130.045 362.054,129.837 373.629,129.837 385.020,129.837 396.622,129.837 407.849,129.837 419.886,129.837 545.496,130.405 556.943,129.997 568.216,129.997 579.466,130.315 590.953,130.315 602.343,130.315 613.699,130.315 625.746,130.315 636.550,130.315 648.041,130.315 659.556,130.315 673.801,130.315 682.556,130.315 693.816,130.121 709.545,130.121 716.822,130.121 727.974,130.121 740.000,128.992"/>
<circle cx="60.000" cy="129.962" r="2" fill="#087f6d"/>
<circle cx="64.863" cy="129.962" r="2" fill="#087f6d"/>
<circle cx="76.229" cy="129.962" r="2" fill="#087f6d"/>
<circle cx="87.634" cy="130.107" r="2" fill="#087f6d"/>
<circle cx="101.933" cy="130.107" r="2" fill="#087f6d"/>
<circle cx="110.644" cy="130.107" r="2" fill="#087f6d"/>
<circle cx="122.231" cy="130.107" r="2" fill="#087f6d"/>
<circle cx="133.962" cy="130.107" r="2" fill="#087f6d"/>
<circle cx="144.821" cy="130.107" r="2" fill="#087f6d"/>
<circle cx="156.376" cy="130.107" r="2" fill="#087f6d"/>
<circle cx="167.821" cy="130.107" r="2" fill="#087f6d"/>
<circle cx="179.287" cy="130.107" r="2" fill="#087f6d"/>
<circle cx="190.730" cy="131.008" r="2" fill="#087f6d"/>
<circle cx="202.044" cy="130.468" r="2" fill="#087f6d"/>
<circle cx="213.536" cy="130.468" r="2" fill="#087f6d"/>
<circle cx="224.853" cy="130.468" r="2" fill="#087f6d"/>
<circle cx="270.824" cy="130.045" r="2" fill="#087f6d"/>
<circle cx="282.136" cy="130.045" r="2" fill="#087f6d"/>
<circle cx="293.619" cy="130.045" r="2" fill="#087f6d"/>
<circle cx="307.238" cy="130.045" r="2" fill="#087f6d"/>
<circle cx="316.668" cy="130.045" r="2" fill="#087f6d"/>
<circle cx="327.840" cy="130.045" r="2" fill="#087f6d"/>
<circle cx="339.294" cy="130.045" r="2" fill="#087f6d"/>
<circle cx="350.754" cy="130.045" r="2" fill="#087f6d"/>
<circle cx="362.054" cy="129.837" r="2" fill="#087f6d"/>
<circle cx="373.629" cy="129.837" r="2" fill="#087f6d"/>
<circle cx="385.020" cy="129.837" r="2" fill="#087f6d"/>
<circle cx="396.622" cy="129.837" r="2" fill="#087f6d"/>
<circle cx="407.849" cy="129.837" r="2" fill="#087f6d"/>
<circle cx="419.886" cy="129.837" r="2" fill="#087f6d"/>
<circle cx="545.496" cy="130.405" r="2" fill="#087f6d"/>
<circle cx="556.943" cy="129.997" r="2" fill="#087f6d"/>
<circle cx="568.216" cy="129.997" r="2" fill="#087f6d"/>
<circle cx="579.466" cy="130.315" r="2" fill="#087f6d"/>
<circle cx="590.953" cy="130.315" r="2" fill="#087f6d"/>
<circle cx="602.343" cy="130.315" r="2" fill="#087f6d"/>
<circle cx="613.699" cy="130.315" r="2" fill="#087f6d"/>
<circle cx="625.746" cy="130.315" r="2" fill="#087f6d"/>
<circle cx="636.550" cy="130.315" r="2" fill="#087f6d"/>
<circle cx="648.041" cy="130.315" r="2" fill="#087f6d"/>
<circle cx="659.556" cy="130.315" r="2" fill="#087f6d"/>
<circle cx="673.801" cy="130.315" r="2" fill="#087f6d"/>
<circle cx="682.556" cy="130.315" r="2" fill="#087f6d"/>
<circle cx="693.816" cy="130.121" r="2" fill="#087f6d"/>
<circle cx="709.545" cy="130.121" r="2" fill="#087f6d"/>
<circle cx="716.822" cy="130.121" r="2" fill="#087f6d"/>
<circle cx="727.974" cy="130.121" r="2" fill="#087f6d"/>
<circle cx="740.000" cy="128.992" r="2" fill="#087f6d"/>
<text x="60" y="250">2026-09-28T19:12:41.261074+00:00</text>
<text x="740" y="250" text-anchor="end">2026-09-28T19:27:33.270377+00:00</text>
</g></svg>
