<svg xmlns="http://www.w3.org/2000/svg" viewBox="0 0 800 270" role="img">
<title>Pumpoween: 61 observed quotes; each price relative to the first quote</title>
<rect width="800" height="270" rx="12" fill="#f6f8fa"/>
<g font-family="sans-serif" font-size="12" fill="#334155">
<text x="60" y="24">Pumpoween: 61 observed quotes; each price relative to the first quote</text>
<text x="8" y="48">1.06x</text><text x="8" y="220">0.92x</text>
<line x1="60" y1="122.562" x2="740" y2="122.562" stroke="#94a3b8" stroke-dasharray="4 4"/>
<text x="744" y="122.562">1x</text>
<polyline fill="none" stroke="#b33b47" stroke-width="2" points="60.000,122.562 63.913,122.038 75.663,121.506 86.870,117.161 98.526,120.551 109.829,120.846 121.245,120.884 133.956,121.773 144.360,121.918 156.587,134.259 166.923,132.608 178.882,133.701 189.754,145.814 202.718,144.871 212.594,134.822 224.194,134.536 235.773,135.090 246.985,135.545 258.479,136.422 270.346,135.480 283.363,136.261 293.380,136.498 309.916,136.050 317.073,142.408 327.452,127.539 338.647,117.704 350.477,114.125 361.884,120.078 373.325,120.622 384.778,105.476 397.678,106.004 407.589,104.926 418.872,120.824 430.478,110.311 441.934,110.202 453.142,123.243 464.615,138.932 477.781,138.505 487.644,138.699 501.134,139.405 510.394,138.992 522.159,138.992 534.411,140.401 545.577,154.174 556.747,138.779 567.650,155.067 579.464,155.074 590.765,121.761 602.521,121.794 615.980,136.954 626.050,121.339 636.440,137.319 648.204,137.175 659.230,137.584 670.678,121.263 682.656,144.251 695.435,143.829 709.555,144.583 716.567,144.586 728.218,128.854 740.000,144.357"/>
<circle cx="60.000" cy="122.562" r="2" fill="#b33b47"/>
<circle cx="63.913" cy="122.038" r="2" fill="#b33b47"/>
<circle cx="75.663" cy="121.506" r="2" fill="#b33b47"/>
<circle cx="86.870" cy="117.161" r="2" fill="#b33b47"/>
<circle cx="98.526" cy="120.551" r="2" fill="#b33b47"/>
<circle cx="109.829" cy="120.846" r="2" fill="#b33b47"/>
<circle cx="121.245" cy="120.884" r="2" fill="#b33b47"/>
<circle cx="133.956" cy="121.773" r="2" fill="#b33b47"/>
<circle cx="144.360" cy="121.918" r="2" fill="#b33b47"/>
<circle cx="156.587" cy="134.259" r="2" fill="#b33b47"/>
<circle cx="166.923" cy="132.608" r="2" fill="#b33b47"/>
<circle cx="178.882" cy="133.701" r="2" fill="#b33b47"/>
<circle cx="189.754" cy="145.814" r="2" fill="#b33b47"/>
<circle cx="202.718" cy="144.871" r="2" fill="#b33b47"/>
<circle cx="212.594" cy="134.822" r="2" fill="#b33b47"/>
<circle cx="224.194" cy="134.536" r="2" fill="#b33b47"/>
<circle cx="235.773" cy="135.090" r="2" fill="#b33b47"/>
<circle cx="246.985" cy="135.545" r="2" fill="#b33b47"/>
<circle cx="258.479" cy="136.422" r="2" fill="#b33b47"/>
<circle cx="270.346" cy="135.480" r="2" fill="#b33b47"/>
<circle cx="283.363" cy="136.261" r="2" fill="#b33b47"/>
<circle cx="293.380" cy="136.498" r="2" fill="#b33b47"/>
<circle cx="309.916" cy="136.050" r="2" fill="#b33b47"/>
<circle cx="317.073" cy="142.408" r="2" fill="#b33b47"/>
<circle cx="327.452" cy="127.539" r="2" fill="#b33b47"/>
<circle cx="338.647" cy="117.704" r="2" fill="#b33b47"/>
<circle cx="350.477" cy="114.125" r="2" fill="#b33b47"/>
<circle cx="361.884" cy="120.078" r="2" fill="#b33b47"/>
<circle cx="373.325" cy="120.622" r="2" fill="#b33b47"/>
<circle cx="384.778" cy="105.476" r="2" fill="#b33b47"/>
<circle cx="397.678" cy="106.004" r="2" fill="#b33b47"/>
<circle cx="407.589" cy="104.926" r="2" fill="#b33b47"/>
<circle cx="418.872" cy="120.824" r="2" fill="#b33b47"/>
<circle cx="430.478" cy="110.311" r="2" fill="#b33b47"/>
<circle cx="441.934" cy="110.202" r="2" fill="#b33b47"/>
<circle cx="453.142" cy="123.243" r="2" fill="#b33b47"/>
<circle cx="464.615" cy="138.932" r="2" fill="#b33b47"/>
<circle cx="477.781" cy="138.505" r="2" fill="#b33b47"/>
<circle cx="487.644" cy="138.699" r="2" fill="#b33b47"/>
<circle cx="501.134" cy="139.405" r="2" fill="#b33b47"/>
<circle cx="510.394" cy="138.992" r="2" fill="#b33b47"/>
<circle cx="522.159" cy="138.992" r="2" fill="#b33b47"/>
<circle cx="534.411" cy="140.401" r="2" fill="#b33b47"/>
<circle cx="545.577" cy="154.174" r="2" fill="#b33b47"/>
<circle cx="556.747" cy="138.779" r="2" fill="#b33b47"/>
<circle cx="567.650" cy="155.067" r="2" fill="#b33b47"/>
<circle cx="579.464" cy="155.074" r="2" fill="#b33b47"/>
<circle cx="590.765" cy="121.761" r="2" fill="#b33b47"/>
<circle cx="602.521" cy="121.794" r="2" fill="#b33b47"/>
<circle cx="615.980" cy="136.954" r="2" fill="#b33b47"/>
<circle cx="626.050" cy="121.339" r="2" fill="#b33b47"/>
<circle cx="636.440" cy="137.319" r="2" fill="#b33b47"/>
<circle cx="648.204" cy="137.175" r="2" fill="#b33b47"/>
<circle cx="659.230" cy="137.584" r="2" fill="#b33b47"/>
<circle cx="670.678" cy="121.263" r="2" fill="#b33b47"/>
<circle cx="682.656" cy="144.251" r="2" fill="#b33b47"/>
<circle cx="695.435" cy="143.829" r="2" fill="#b33b47"/>
<circle cx="709.555" cy="144.583" r="2" fill="#b33b47"/>
<circle cx="716.567" cy="144.586" r="2" fill="#b33b47"/>
<circle cx="728.218" cy="128.854" r="2" fill="#b33b47"/>
<circle cx="740.000" cy="144.357" r="2" fill="#b33b47"/>
<text x="60" y="250">2026-09-28T19:12:40.365643+00:00</text>
<text x="740" y="250" text-anchor="end">2026-09-28T19:27:31.150305+00:00</text>
</g></svg>
