<svg xmlns="http://www.w3.org/2000/svg" viewBox="0 0 800 270" role="img">
<title>o: 49 observed quotes; each price relative to the first quote</title>
<rect width="800" height="270" rx="12" fill="#f6f8fa"/>
<g font-family="sans-serif" font-size="12" fill="#334155">
<text x="60" y="24">o: 49 observed quotes; each price relative to the first quote</text>
<text x="8" y="48">1.05x</text><text x="8" y="220">0.74x</text>
<line x1="60" y1="69.275" x2="740" y2="69.275" stroke="#94a3b8" stroke-dasharray="4 4"/>
<text x="744" y="69.275">1x</text>
<polyline fill="none" stroke="#b33b47" stroke-width="2" points="60.000,69.275 76.021,128.513 88.225,150.752 102.561,169.449 116.871,155.513 130.726,171.208 144.931,171.208 159.597,190.725 175.682,160.805 188.062,180.291 208.497,140.751 217.343,137.313 230.169,138.850 244.003,138.475 258.623,141.702 272.720,165.327 286.859,141.644 301.012,144.685 316.954,139.768 329.203,137.185 343.147,106.505 357.489,104.326 371.646,92.102 385.498,77.324 399.676,97.655 415.947,101.368 428.136,101.368 444.806,110.942 456.251,90.532 470.790,87.368 485.931,86.267 499.729,87.923 513.534,154.720 527.007,127.336 541.608,99.723 555.573,120.225 570.102,127.449 586.735,127.166 599.179,145.970 612.019,146.487 626.558,121.361 640.183,131.122 654.332,151.856 669.134,155.324 684.927,157.972 702.375,136.487 711.041,136.487 725.439,136.487 740.000,153.544"/>
<circle cx="60.000" cy="69.275" r="2" fill="#b33b47"/>
<circle cx="76.021" cy="128.513" r="2" fill="#b33b47"/>
<circle cx="88.225" cy="150.752" r="2" fill="#b33b47"/>
<circle cx="102.561" cy="169.449" r="2" fill="#b33b47"/>
<circle cx="116.871" cy="155.513" r="2" fill="#b33b47"/>
<circle cx="130.726" cy="171.208" r="2" fill="#b33b47"/>
<circle cx="144.931" cy="171.208" r="2" fill="#b33b47"/>
<circle cx="159.597" cy="190.725" r="2" fill="#b33b47"/>
<circle cx="175.682" cy="160.805" r="2" fill="#b33b47"/>
<circle cx="188.062" cy="180.291" r="2" fill="#b33b47"/>
<circle cx="208.497" cy="140.751" r="2" fill="#b33b47"/>
<circle cx="217.343" cy="137.313" r="2" fill="#b33b47"/>
<circle cx="230.169" cy="138.850" r="2" fill="#b33b47"/>
<circle cx="244.003" cy="138.475" r="2" fill="#b33b47"/>
<circle cx="258.623" cy="141.702" r="2" fill="#b33b47"/>
<circle cx="272.720" cy="165.327" r="2" fill="#b33b47"/>
<circle cx="286.859" cy="141.644" r="2" fill="#b33b47"/>
<circle cx="301.012" cy="144.685" r="2" fill="#b33b47"/>
<circle cx="316.954" cy="139.768" r="2" fill="#b33b47"/>
<circle cx="329.203" cy="137.185" r="2" fill="#b33b47"/>
<circle cx="343.147" cy="106.505" r="2" fill="#b33b47"/>
<circle cx="357.489" cy="104.326" r="2" fill="#b33b47"/>
<circle cx="371.646" cy="92.102" r="2" fill="#b33b47"/>
<circle cx="385.498" cy="77.324" r="2" fill="#b33b47"/>
<circle cx="399.676" cy="97.655" r="2" fill="#b33b47"/>
<circle cx="415.947" cy="101.368" r="2" fill="#b33b47"/>
<circle cx="428.136" cy="101.368" r="2" fill="#b33b47"/>
<circle cx="444.806" cy="110.942" r="2" fill="#b33b47"/>
<circle cx="456.251" cy="90.532" r="2" fill="#b33b47"/>
<circle cx="470.790" cy="87.368" r="2" fill="#b33b47"/>
<circle cx="485.931" cy="86.267" r="2" fill="#b33b47"/>
<circle cx="499.729" cy="87.923" r="2" fill="#b33b47"/>
<circle cx="513.534" cy="154.720" r="2" fill="#b33b47"/>
<circle cx="527.007" cy="127.336" r="2" fill="#b33b47"/>
<circle cx="541.608" cy="99.723" r="2" fill="#b33b47"/>
<circle cx="555.573" cy="120.225" r="2" fill="#b33b47"/>
<circle cx="570.102" cy="127.449" r="2" fill="#b33b47"/>
<circle cx="586.735" cy="127.166" r="2" fill="#b33b47"/>
<circle cx="599.179" cy="145.970" r="2" fill="#b33b47"/>
<circle cx="612.019" cy="146.487" r="2" fill="#b33b47"/>
<circle cx="626.558" cy="121.361" r="2" fill="#b33b47"/>
<circle cx="640.183" cy="131.122" r="2" fill="#b33b47"/>
<circle cx="654.332" cy="151.856" r="2" fill="#b33b47"/>
<circle cx="669.134" cy="155.324" r="2" fill="#b33b47"/>
<circle cx="684.927" cy="157.972" r="2" fill="#b33b47"/>
<circle cx="702.375" cy="136.487" r="2" fill="#b33b47"/>
<circle cx="711.041" cy="136.487" r="2" fill="#b33b47"/>
<circle cx="725.439" cy="136.487" r="2" fill="#b33b47"/>
<circle cx="740.000" cy="153.544" r="2" fill="#b33b47"/>
<text x="60" y="250">2026-09-28T19:15:30.340579+00:00</text>
<text x="740" y="250" text-anchor="end">2026-09-28T19:27:31.150305+00:00</text>
</g></svg>
