<svg xmlns="http://www.w3.org/2000/svg" viewBox="0 0 800 270" role="img">
<title>4Stock: 45 observed quotes; each price relative to the first quote</title>
<rect width="800" height="270" rx="12" fill="#f6f8fa"/>
<g font-family="sans-serif" font-size="12" fill="#334155">
<text x="60" y="24">4Stock: 45 observed quotes; each price relative to the first quote</text>
<text x="8" y="48">1.05x</text><text x="8" y="220">0.94x</text>
<line x1="60" y1="123.454" x2="740" y2="123.454" stroke="#94a3b8" stroke-dasharray="4 4"/>
<text x="744" y="123.454">1x</text>
<polyline fill="none" stroke="#b33b47" stroke-width="2" points="60.000,123.454 64.863,123.454 76.229,123.454 87.634,123.454 101.933,124.171 110.644,124.171 122.231,124.171 133.962,136.546 144.821,136.546 156.376,136.546 167.821,136.546 179.287,136.546 190.730,136.546 202.044,136.546 213.536,132.636 224.853,132.636 236.361,132.636 247.906,132.636 259.460,132.636 453.627,129.621 465.523,130.191 476.400,130.191 488.138,130.386 500.493,130.386 510.846,130.386 522.284,130.608 533.597,130.608 545.496,131.204 556.943,133.021 568.216,131.948 579.466,131.779 590.953,131.779 602.343,131.779 613.699,131.779 625.746,131.779 636.550,131.779 648.041,131.779 659.556,131.779 673.801,133.148 682.556,133.553 693.816,133.553 709.545,131.414 716.822,131.414 727.974,131.414 740.000,131.414"/>
<circle cx="60.000" cy="123.454" r="2" fill="#b33b47"/>
<circle cx="64.863" cy="123.454" r="2" fill="#b33b47"/>
<circle cx="76.229" cy="123.454" r="2" fill="#b33b47"/>
<circle cx="87.634" cy="123.454" r="2" fill="#b33b47"/>
<circle cx="101.933" cy="124.171" r="2" fill="#b33b47"/>
<circle cx="110.644" cy="124.171" r="2" fill="#b33b47"/>
<circle cx="122.231" cy="124.171" r="2" fill="#b33b47"/>
<circle cx="133.962" cy="136.546" r="2" fill="#b33b47"/>
<circle cx="144.821" cy="136.546" r="2" fill="#b33b47"/>
<circle cx="156.376" cy="136.546" r="2" fill="#b33b47"/>
<circle cx="167.821" cy="136.546" r="2" fill="#b33b47"/>
<circle cx="179.287" cy="136.546" r="2" fill="#b33b47"/>
<circle cx="190.730" cy="136.546" r="2" fill="#b33b47"/>
<circle cx="202.044" cy="136.546" r="2" fill="#b33b47"/>
<circle cx="213.536" cy="132.636" r="2" fill="#b33b47"/>
<circle cx="224.853" cy="132.636" r="2" fill="#b33b47"/>
<circle cx="236.361" cy="132.636" r="2" fill="#b33b47"/>
<circle cx="247.906" cy="132.636" r="2" fill="#b33b47"/>
<circle cx="259.460" cy="132.636" r="2" fill="#b33b47"/>
<circle cx="453.627" cy="129.621" r="2" fill="#b33b47"/>
<circle cx="465.523" cy="130.191" r="2" fill="#b33b47"/>
<circle cx="476.400" cy="130.191" r="2" fill="#b33b47"/>
<circle cx="488.138" cy="130.386" r="2" fill="#b33b47"/>
<circle cx="500.493" cy="130.386" r="2" fill="#b33b47"/>
<circle cx="510.846" cy="130.386" r="2" fill="#b33b47"/>
<circle cx="522.284" cy="130.608" r="2" fill="#b33b47"/>
<circle cx="533.597" cy="130.608" r="2" fill="#b33b47"/>
<circle cx="545.496" cy="131.204" r="2" fill="#b33b47"/>
<circle cx="556.943" cy="133.021" r="2" fill="#b33b47"/>
<circle cx="568.216" cy="131.948" r="2" fill="#b33b47"/>
<circle cx="579.466" cy="131.779" r="2" fill="#b33b47"/>
<circle cx="590.953" cy="131.779" r="2" fill="#b33b47"/>
<circle cx="602.343" cy="131.779" r="2" fill="#b33b47"/>
<circle cx="613.699" cy="131.779" r="2" fill="#b33b47"/>
<circle cx="625.746" cy="131.779" r="2" fill="#b33b47"/>
<circle cx="636.550" cy="131.779" r="2" fill="#b33b47"/>
<circle cx="648.041" cy="131.779" r="2" fill="#b33b47"/>
<circle cx="659.556" cy="131.779" r="2" fill="#b33b47"/>
<circle cx="673.801" cy="133.148" r="2" fill="#b33b47"/>
<circle cx="682.556" cy="133.553" r="2" fill="#b33b47"/>
<circle cx="693.816" cy="133.553" r="2" fill="#b33b47"/>
<circle cx="709.545" cy="131.414" r="2" fill="#b33b47"/>
<circle cx="716.822" cy="131.414" r="2" fill="#b33b47"/>
<circle cx="727.974" cy="131.414" r="2" fill="#b33b47"/>
<circle cx="740.000" cy="131.414" r="2" fill="#b33b47"/>
<text x="60" y="250">2026-09-28T19:12:41.261074+00:00</text>
<text x="740" y="250" text-anchor="end">2026-09-28T19:27:33.270377+00:00</text>
</g></svg>
