<svg xmlns="http://www.w3.org/2000/svg" viewBox="0 0 800 270" role="img">
<title>GME: 22 observed quotes; each price relative to the first quote</title>
<rect width="800" height="270" rx="12" fill="#f6f8fa"/>
<g font-family="sans-serif" font-size="12" fill="#334155">
<text x="60" y="24">GME: 22 observed quotes; each price relative to the first quote</text>
<text x="8" y="48">1.12x</text><text x="8" y="220">0.95x</text>
<line x1="60" y1="165.246" x2="740" y2="165.246" stroke="#94a3b8" stroke-dasharray="4 4"/>
<text x="744" y="165.246">1x</text>
<polyline fill="none" stroke="#087f6d" stroke-width="2" points="60.000,165.246 64.863,165.246 76.229,165.246 101.933,169.877 110.644,169.877 556.943,144.679 568.216,144.679 579.466,144.679 590.953,90.123 602.343,90.123 613.699,90.123 625.746,90.123 636.550,90.123 648.041,99.052 659.556,99.052 673.801,99.052 682.556,99.052 693.816,99.052 709.545,99.052 716.822,99.052 727.974,99.052 740.000,100.823"/>
<circle cx="60.000" cy="165.246" r="2" fill="#087f6d"/>
<circle cx="64.863" cy="165.246" r="2" fill="#087f6d"/>
<circle cx="76.229" cy="165.246" r="2" fill="#087f6d"/>
<circle cx="101.933" cy="169.877" r="2" fill="#087f6d"/>
<circle cx="110.644" cy="169.877" r="2" fill="#087f6d"/>
<circle cx="556.943" cy="144.679" r="2" fill="#087f6d"/>
<circle cx="568.216" cy="144.679" r="2" fill="#087f6d"/>
<circle cx="579.466" cy="144.679" r="2" fill="#087f6d"/>
<circle cx="590.953" cy="90.123" r="2" fill="#087f6d"/>
<circle cx="602.343" cy="90.123" r="2" fill="#087f6d"/>
<circle cx="613.699" cy="90.123" r="2" fill="#087f6d"/>
<circle cx="625.746" cy="90.123" r="2" fill="#087f6d"/>
<circle cx="636.550" cy="90.123" r="2" fill="#087f6d"/>
<circle cx="648.041" cy="99.052" r="2" fill="#087f6d"/>
<circle cx="659.556" cy="99.052" r="2" fill="#087f6d"/>
<circle cx="673.801" cy="99.052" r="2" fill="#087f6d"/>
<circle cx="682.556" cy="99.052" r="2" fill="#087f6d"/>
<circle cx="693.816" cy="99.052" r="2" fill="#087f6d"/>
<circle cx="709.545" cy="99.052" r="2" fill="#087f6d"/>
<circle cx="716.822" cy="99.052" r="2" fill="#087f6d"/>
<circle cx="727.974" cy="99.052" r="2" fill="#087f6d"/>
<circle cx="740.000" cy="100.823" r="2" fill="#087f6d"/>
<text x="60" y="250">2026-09-28T19:12:41.261074+00:00</text>
<text x="740" y="250" text-anchor="end">2026-09-28T19:27:33.270377+00:00</text>
</g></svg>
